Coordinates
version=1
nRows=12
nColumns=33
inDegrees=yes

Units are S.I. units (second, meters, Newtons, ...)
Angles are in degrees.

endheader
time	ground_thorax_rot_x	ground_thorax_rot_y	ground_thorax_rot_z	ground_thorax_tx	ground_thorax_ty	ground_thorax_tz	clav_prot_r	clav_elev_r	scapula_abduction_r	scapula_elevation_r	scapula_upward_rot_r	scapula_winging_r	shoulder_elv_r	plane_of_elev_r	axial_rot_r	elbow_flexion_r	pro_sup_r	wrist_flex_r	wrist_dev_r	clav_prot_l	clav_elev_l	scapula_abduction_l	scapula_elevation_l	scapula_upward_rot_l	scapula_winging_l	shoulder_elv_l	plane_of_elev_l	axial_rot_l	elbow_flexion_l	pro_sup_l	wrist_flex_l	wrist_dev_l	
2.7900	-1.465885	2.783227	11.077162	-0.101714	1.027434	0.013947	9.205123	-9.643333	17.375089	-3.628214	2.587406	-3.938567	-36.673812	-75.004904	104.814676	-80.042351	-153.471141	31.032966	-17.640070	13.014665	-4.830103	-17.655033	-16.024788	-33.094664	1.585300	64.229616	-21.282933	4.767173	64.317578	11.353782	20.537018	-11.028022	
2.8000	-1.660957	2.763361	11.120601	-0.101747	1.027268	0.013635	9.394488	-9.775188	17.848219	-3.859684	2.872779	-4.080653	-34.707047	-74.687985	106.404728	-80.481405	-154.261142	28.948523	-15.875453	13.503339	-5.195457	-18.479390	-15.493281	-32.751978	2.023140	64.313451	-20.179464	5.096558	62.679332	10.856700	21.749924	-10.070679	
2.8100	-1.863932	2.738764	11.158448	-0.101763	1.027111	0.013274	9.594438	-9.926471	18.345255	-4.111206	3.167461	-4.223744	-32.666951	-74.319133	108.024315	-80.807207	-154.995148	26.879126	-14.042124	14.037933	-5.584824	-19.384644	-14.949249	-32.431714	2.495543	64.359757	-19.080463	5.469999	60.902515	10.435025	22.837713	-9.226166	
2.8200	-2.074765	2.711623	11.181425	-0.101742	1.026930	0.012868	9.789913	-10.071449	18.858283	-4.374712	3.508780	-4.376159	-30.575474	-73.896452	109.695225	-81.006676	-155.670508	24.814514	-12.147233	14.614927	-5.966677	-20.360784	-14.416149	-32.120143	3.001314	64.356851	-17.964211	5.889386	59.003780	10.093641	23.819843	-8.489960	
2.8300	-2.293014	2.682898	11.189878	-0.101667	1.026794	0.012423	9.989050	-10.244114	19.400496	-4.678637	3.892463	-4.528023	-28.573094	-73.416646	111.251752	-81.035594	-156.232380	22.927505	-10.365093	15.205317	-6.362839	-21.355129	-13.867948	-31.802127	3.516807	64.344530	-16.870995	6.295410	56.996673	9.884141	24.623390	-7.882294	
2.8400	-2.509429	2.647229	11.189966	-0.101558	1.026643	0.011950	10.199291	-10.400365	19.987676	-4.986034	4.326377	-4.704639	-26.621877	-72.872656	112.760600	-80.916198	-156.730980	21.062210	-8.556206	15.821035	-6.748817	-22.388678	-13.329380	-31.483073	4.053567	64.289263	-15.777924	6.728894	54.896981	9.751007	25.356437	-7.355240	
2.8500	-2.725206	2.604695	11.174034	-0.101402	1.026535	0.011456	10.422810	-10.573360	20.618157	-5.320542	4.796908	-4.889802	-24.768174	-72.268650	114.148813	-80.627693	-157.151536	19.320231	-6.835962	16.439836	-7.143390	-23.422473	-12.782167	-31.158390	4.591133	64.228773	-14.709652	7.160685	52.719950	9.708168	25.976919	-6.897630	
2.8600	-2.932197	2.554866	11.141270	-0.101200	1.026428	0.010945	10.647850	-10.728705	21.284502	-5.660580	5.328237	-5.095910	-22.980558	-71.611783	115.484037	-80.174972	-157.511202	17.647606	-5.139535	17.069279	-7.517926	-24.469682	-12.250434	-30.825058	5.139922	64.123697	-13.631069	7.628816	50.462940	9.736124	26.494703	-6.517225	
2.8700	-3.136297	2.498248	11.087610	-0.100933	1.026392	0.010424	10.877105	-10.907893	21.991121	-6.041785	5.917647	-5.305379	-21.371680	-70.910092	116.630181	-79.527924	-157.781064	16.177365	-3.622063	17.678492	-7.895330	-25.475360	-11.706879	-30.466408	5.672120	64.020940	-12.589818	8.064718	48.147224	9.858198	26.850717	-6.212162	
2.8800	-3.325276	2.434478	11.032811	-0.100657	1.026329	0.009899	11.115308	-11.048123	22.740933	-6.404299	6.556562	-5.548167	-19.817428	-70.155817	117.741019	-78.721496	-158.008775	14.722849	-2.080414	18.305599	-8.239187	-26.508606	-11.194202	-30.107549	6.224693	63.859362	-11.536879	8.531875	45.776425	10.037164	27.106766	-5.987660	
2.8900	-3.508914	2.367202	10.971745	-0.100351	1.026315	0.009371	11.356860	-11.200850	23.514116	-6.785083	7.222999	-5.791530	-18.354340	-69.361976	118.744822	-77.738313	-158.180071	13.380194	-0.653458	18.923278	-8.579490	-27.521969	-10.684316	-29.743134	6.768990	63.697400	-10.523049	8.963468	43.385705	10.280103	27.235910	-5.814710	
2.9000	-3.677700	2.296824	10.915404	-0.100030	1.026290	0.008845	11.590366	-11.320251	24.297310	-7.146428	7.926167	-6.051565	-16.914137	-68.531490	119.746436	-76.595698	-158.308321	12.072320	0.752088	19.548896	-8.885787	-28.547779	-10.207738	-29.382313	7.325234	63.487205	-9.507717	9.409535	40.973075	10.575632	27.245484	-5.708205	
